<svg width="46" height="46" viewBox="0 0 46 46" fill="currentColor" xmlns="http://www.w3.org/2000/svg">
  <!-- Logo -->
  <g id="logo">
    <path id="Vector" d="M40.7291 31.3563C39.0424 31.3563 38.2949 30.7046 37.2407 29.7846C36.0716 28.7879 34.6149 27.5229 31.8741 27.5229C29.1141 27.5229 27.6766 28.7879 26.5074 29.7846C25.4532 30.7046 24.6866 31.3563 22.9999 31.3563C21.3324 31.3563 20.5657 30.7046 19.5116 29.7846C18.3424 28.7879 16.8858 27.5229 14.1449 27.5229C11.3849 27.5229 9.92827 28.7879 8.7591 29.7846C7.70493 30.7046 6.95742 31.3563 5.27075 31.3563C4.48492 31.3563 3.83325 32.008 3.83325 32.7938C3.83325 33.5988 4.48492 34.2313 5.27075 34.2313C8.03075 34.2313 9.46823 32.9855 10.6374 31.9696C11.6916 31.0496 12.4583 30.3979 14.1449 30.3979C15.8316 30.3979 16.5791 31.0496 17.6333 31.9696C18.8024 32.9855 20.2591 34.2313 22.9999 34.2313C25.7599 34.2313 27.2166 32.9855 28.3857 31.9696C29.4399 31.0496 30.1874 30.3979 31.8741 30.3979C33.5416 30.3979 34.3083 31.0496 35.3624 31.9696C36.5316 32.9855 37.9883 34.2313 40.7291 34.2313C41.5149 34.2313 42.1666 33.5988 42.1666 32.7938C42.1666 32.008 41.5149 31.3563 40.7291 31.3563Z" fill="currentColor"/>
    <path id="Vector_2" d="M40.7291 23.4605C39.0424 23.4605 38.2949 22.7897 37.2407 21.8889C36.0716 20.873 34.6149 19.6272 31.8741 19.6272C29.1141 19.6272 27.6766 20.873 26.5074 21.8889C25.4532 22.7897 24.6866 23.4605 22.9999 23.4605C21.3324 23.4605 20.5657 22.7897 19.5116 21.8889C18.3424 20.873 16.8858 19.6272 14.1449 19.6272C11.3849 19.6272 9.92827 20.873 8.7591 21.8889C7.70493 22.7897 6.95742 23.4605 5.27075 23.4605C4.48492 23.4605 3.83325 24.093 3.83325 24.898C3.83325 25.6839 4.48492 26.3355 5.27075 26.3355C8.03075 26.3355 9.46823 25.0705 10.6374 24.0547C11.6916 23.1539 12.4583 22.5022 14.1449 22.5022C15.8316 22.5022 16.5791 23.1539 17.6333 24.0547C18.8024 25.0705 20.2591 26.3355 22.9999 26.3355C25.7599 26.3355 27.2166 25.0705 28.3857 24.0547C29.4399 23.1539 30.1874 22.5022 31.8741 22.5022C33.5416 22.5022 34.3083 23.1539 35.3624 24.0547C36.5316 25.0705 37.9883 26.3355 40.7291 26.3355C41.5149 26.3355 42.1666 25.6839 42.1666 24.898C42.1666 24.093 41.5149 23.4605 40.7291 23.4605Z" fill="currentColor"/>
    <path id="Vector_3" d="M5.27075 18.4769C8.03075 18.4769 9.46823 17.2119 10.6374 16.2152C11.6916 15.2952 12.4583 14.6436 14.1449 14.6436C15.8316 14.6436 16.5791 15.2952 17.6333 16.2152C18.8024 17.2119 20.2591 18.4769 22.9999 18.4769C25.7599 18.4769 27.2166 17.2119 28.3857 16.2152C29.4399 15.2952 30.1874 14.6436 31.8741 14.6436C33.5416 14.6436 34.3083 15.2952 35.3624 16.2152C36.5316 17.2119 37.9883 18.4769 40.7291 18.4769C41.5149 18.4769 42.1666 17.8252 42.1666 17.0394C42.1666 16.2344 41.5149 15.6019 40.7291 15.6019C39.0424 15.6019 38.2949 14.9502 37.2407 14.0302C36.0716 13.0144 34.6149 11.7686 31.8741 11.7686C29.1141 11.7686 27.6766 13.0144 26.5074 14.0302C25.4532 14.9502 24.6866 15.6019 22.9999 15.6019C21.3324 15.6019 20.5657 14.9502 19.5116 14.0302C18.3424 13.0144 16.8858 11.7686 14.1449 11.7686C11.3849 11.7686 9.92827 13.0144 8.7591 14.0302C7.70493 14.9502 6.95742 15.6019 5.27075 15.6019C4.48492 15.6019 3.83325 16.2344 3.83325 17.0394C3.83325 17.8252 4.48492 18.4769 5.27075 18.4769Z" fill="currentColor"/>
  </g>

  <!-- Menu Icons -->
  <g id="home">
    <g id="home-2">
      <path id="Vector" d="M14.8248 19.4581H5.17484C2.8915 19.4581 1.0415 17.5998 1.0415 15.3165V9.14148C1.0415 8.00815 1.7415 6.58315 2.6415 5.88315L7.13317 2.38315C8.48317 1.33315 10.6415 1.28315 12.0415 2.26648L17.1915 5.87482C18.1832 6.56648 18.9582 8.04982 18.9582 9.25815V15.3248C18.9582 17.5998 17.1082 19.4581 14.8248 19.4581ZM7.89984 3.36648L3.40817 6.86648C2.8165 7.33315 2.2915 8.39148 2.2915 9.14148V15.3165C2.2915 16.9081 3.58317 18.2081 5.17484 18.2081H14.8248C16.4165 18.2081 17.7082 16.9165 17.7082 15.3248V9.25815C17.7082 8.45815 17.1332 7.34982 16.4748 6.89982L11.3248 3.29148C10.3748 2.62482 8.80817 2.65815 7.89984 3.36648Z" fill="currentColor"/>
      <path id="Vector_2" d="M10 16.125C9.65833 16.125 9.375 15.8417 9.375 15.5V13C9.375 12.6583 9.65833 12.375 10 12.375C10.3417 12.375 10.625 12.6583 10.625 13V15.5C10.625 15.8417 10.3417 16.125 10 16.125Z" fill="currentColor"/>
    </g>
  </g>
  <g id="activity">
    <path id="Vector" d="M10 5.1333H18.3333" stroke="currentColor" stroke-width="1.5" stroke-miterlimit="10" stroke-linecap="round" stroke-linejoin="round"/>
    <path id="Vector_2" d="M11.85 2.1665H16.4833C17.9667 2.1665 18.3333 2.53317 18.3333 3.99984V7.42484C18.3333 8.89151 17.9667 9.25817 16.4833 9.25817H11.85C10.3667 9.25817 10 8.89151 10 7.42484V3.99984C10 2.53317 10.3667 2.1665 11.85 2.1665Z" stroke="currentColor" stroke-width="1.5" stroke-linecap="round" stroke-linejoin="round"/>
    <path id="Vector_3" d="M1.6665 14.7168H9.99984" stroke="currentColor" stroke-width="1.5" stroke-miterlimit="10" stroke-linecap="round" stroke-linejoin="round"/>
    <path id="Vector_4" d="M3.5165 11.75H8.14984C9.63317 11.75 9.99984 12.1167 9.99984 13.5833V17.0083C9.99984 18.475 9.63317 18.8417 8.14984 18.8417H3.5165C2.03317 18.8417 1.6665 18.475 1.6665 17.0083V13.5833C1.6665 12.1167 2.03317 11.75 3.5165 11.75Z" stroke="currentColor" stroke-width="1.5" stroke-linecap="round" stroke-linejoin="round"/>
    <g id="Group">
      <path id="Vector_5" d="M18.3333 13C18.3333 16.225 15.725 18.8333 12.5 18.8333L13.375 17.375" stroke="currentColor" stroke-width="1.5" stroke-linecap="round" stroke-linejoin="round"/>
      <path id="Vector_6" d="M1.6665 7.99984C1.6665 4.77484 4.27484 2.1665 7.49984 2.1665L6.62485 3.62484" stroke="currentColor" stroke-width="1.5" stroke-linecap="round" stroke-linejoin="round"/>
    </g>
  </g>
  <g id="message">
    <path id="Vector" d="M1.6665 15.7502V3.8335C1.6665 3.10415 1.95624 2.40468 2.47196 1.88895C2.98769 1.37323 3.68716 1.0835 4.4165 1.0835H13.5832C14.3125 1.0835 15.012 1.37323 15.5277 1.88895C16.0434 2.40468 16.3332 3.10415 16.3332 3.8335V9.3335C16.3332 10.0628 16.0434 10.7623 15.5277 11.278C15.012 11.7938 14.3125 12.0835 13.5832 12.0835H5.33317L1.6665 15.7502Z" stroke="currentColor" stroke-width="1.5" stroke-linecap="round" stroke-linejoin="round"/>
    <path id="Vector_2" d="M5.33301 4.75H12.6663" stroke="currentColor" stroke-width="1.5" stroke-linecap="round" stroke-linejoin="round"/>
    <path id="Vector_3" d="M5.33301 8.41699H10.833" stroke="currentColor" stroke-width="1.5" stroke-linecap="round" stroke-linejoin="round"/>
  </g>
  <g id="wallet">
    <g id="card_2">
      <path id="Vector" d="M1.6665 7.5874H18.3332" stroke="currentColor" stroke-width="1.5" stroke-miterlimit="10" stroke-linecap="round" stroke-linejoin="round"/>
      <path id="Vector_2" d="M5 14.2539H6.66667" stroke="currentColor" stroke-width="1.5" stroke-miterlimit="10" stroke-linecap="round" stroke-linejoin="round"/>
      <path id="Vector_3" d="M8.75 14.2539H12.0833" stroke="currentColor" stroke-width="1.5" stroke-miterlimit="10" stroke-linecap="round" stroke-linejoin="round"/>
      <path id="Vector_4" d="M5.3665 3.4209H14.6248C17.5915 3.4209 18.3332 4.15423 18.3332 7.07923V13.9209C18.3332 16.8459 17.5915 17.5792 14.6332 17.5792H5.3665C2.40817 17.5876 1.6665 16.8542 1.6665 13.9292V7.07923C1.6665 4.15423 2.40817 3.4209 5.3665 3.4209Z" stroke="currentColor" stroke-width="1.5" stroke-linecap="round" stroke-linejoin="round"/>
    </g>
  </g>
  <g id="market">
    <path id="Vector" d="M5.25016 11.3333L10.7502 5.83333L5.25016 11.3333ZM5.7085 6.29167H5.71766H5.7085ZM10.2918 10.875H10.301H10.2918ZM14.4168 17.75V3.08333C14.4168 2.5971 14.2237 2.13079 13.8799 1.78697C13.536 1.44315 13.0697 1.25 12.5835 1.25H3.41683C2.9306 1.25 2.46428 1.44315 2.12047 1.78697C1.77665 2.13079 1.5835 2.5971 1.5835 3.08333V17.75L4.79183 15.9167L8.00016 17.75L11.2085 15.9167L14.4168 17.75ZM6.16683 6.29167C6.16683 6.41322 6.11854 6.5298 6.03259 6.61576C5.94663 6.70171 5.83005 6.75 5.7085 6.75C5.58694 6.75 5.47036 6.70171 5.3844 6.61576C5.29845 6.5298 5.25016 6.41322 5.25016 6.29167C5.25016 6.17011 5.29845 6.05353 5.3844 5.96758C5.47036 5.88162 5.58694 5.83333 5.7085 5.83333C5.83005 5.83333 5.94663 5.88162 6.03259 5.96758C6.11854 6.05353 6.16683 6.17011 6.16683 6.29167ZM10.7502 10.875C10.7502 10.9966 10.7019 11.1131 10.6159 11.1991C10.53 11.285 10.4134 11.3333 10.2918 11.3333C10.1703 11.3333 10.0537 11.285 9.96774 11.1991C9.88178 11.1131 9.8335 10.9966 9.8335 10.875C9.8335 10.7534 9.88178 10.6369 9.96774 10.5509C10.0537 10.465 10.1703 10.4167 10.2918 10.4167C10.4134 10.4167 10.53 10.465 10.6159 10.5509C10.7019 10.6369 10.7502 10.7534 10.7502 10.875Z" stroke="currentColor" stroke-width="1.5" stroke-linecap="round" stroke-linejoin="round"/>
  </g>

  <!-- Help Menu -->
  <g id="faq">
    <path id="Vector" d="M11 1.875C5.68477 1.875 1.375 6.18477 1.375 11.5C1.375 16.8152 5.68477 21.125 11 21.125C16.3152 21.125 20.625 16.8152 20.625 11.5C20.625 6.18477 16.3152 1.875 11 1.875ZM11 19.4922C6.58711 19.4922 3.00781 15.9129 3.00781 11.5C3.00781 7.08711 6.58711 3.50781 11 3.50781C15.4129 3.50781 18.9922 7.08711 18.9922 11.5C18.9922 15.9129 15.4129 19.4922 11 19.4922Z" fill="currentColor"/>
    <path id="Vector_2" d="M13.3977 7.3041C12.7531 6.73906 11.9023 6.42969 11 6.42969C10.0977 6.42969 9.24687 6.74121 8.60234 7.3041C7.93203 7.89063 7.5625 8.6791 7.5625 9.52344V9.68672C7.5625 9.78125 7.63984 9.85859 7.73437 9.85859H8.76562C8.86016 9.85859 8.9375 9.78125 8.9375 9.68672V9.52344C8.9375 8.57598 9.86348 7.80469 11 7.80469C12.1365 7.80469 13.0625 8.57598 13.0625 9.52344C13.0625 10.1916 12.5898 10.8039 11.8572 11.0854C11.4018 11.2594 11.015 11.5645 10.7379 11.9641C10.4564 12.3723 10.3104 12.8621 10.3104 13.3584V13.8203C10.3104 13.9148 10.3877 13.9922 10.4822 13.9922H11.5135C11.608 13.9922 11.6854 13.9148 11.6854 13.8203V13.3326C11.6865 13.124 11.7504 12.9207 11.8688 12.749C11.9872 12.5773 12.1547 12.4453 12.3492 12.3701C13.6168 11.8824 14.4354 10.7652 14.4354 9.52344C14.4375 8.6791 14.068 7.89063 13.3977 7.3041ZM10.1406 16.2266C10.1406 16.4545 10.2312 16.6731 10.3923 16.8342C10.5535 16.9954 10.7721 17.0859 11 17.0859C11.2279 17.0859 11.4465 16.9954 11.6077 16.8342C11.7688 16.6731 11.8594 16.4545 11.8594 16.2266C11.8594 15.9986 11.7688 15.7801 11.6077 15.6189C11.4465 15.4577 11.2279 15.3672 11 15.3672C10.7721 15.3672 10.5535 15.4577 10.3923 15.6189C10.2312 15.7801 10.1406 15.9986 10.1406 16.2266Z" fill="currentColor"/>
  </g>
  <g id="settings">
    <path id="Vector" d="M7.46458 2.45725C7.85508 0.847583 10.1449 0.847583 10.5354 2.45725C10.594 2.69907 10.7089 2.92363 10.8707 3.11267C11.0324 3.3017 11.2366 3.44987 11.4664 3.5451C11.6963 3.64033 11.9454 3.67995 12.1935 3.66071C12.4415 3.64148 12.6816 3.56394 12.894 3.43442C14.3084 2.57275 15.9282 4.19158 15.0665 5.60692C14.9372 5.81927 14.8597 6.05914 14.8406 6.30704C14.8214 6.55494 14.8609 6.80387 14.9561 7.0336C15.0512 7.26332 15.1992 7.46736 15.388 7.62913C15.5768 7.7909 15.8012 7.90583 16.0428 7.96458C17.6524 8.35508 17.6524 10.6449 16.0428 11.0354C15.8009 11.094 15.5764 11.2089 15.3873 11.3707C15.1983 11.5324 15.0501 11.7366 14.9549 11.9664C14.8597 12.1963 14.8201 12.4454 14.8393 12.6935C14.8585 12.9415 14.9361 13.1816 15.0656 13.394C15.9273 14.8084 14.3084 16.4282 12.8931 15.5665C12.6807 15.4372 12.4409 15.3597 12.193 15.3406C11.9451 15.3214 11.6961 15.3609 11.4664 15.4561C11.2367 15.5512 11.0326 15.6992 10.8709 15.888C10.7091 16.0768 10.5942 16.3012 10.5354 16.5428C10.1449 18.1524 7.85508 18.1524 7.46458 16.5428C7.40599 16.3009 7.29113 16.0764 7.12935 15.8873C6.96757 15.6983 6.76344 15.5501 6.53357 15.4549C6.3037 15.3597 6.0546 15.3201 5.80653 15.3393C5.55846 15.3585 5.31844 15.4361 5.106 15.5656C3.69158 16.4273 2.07183 14.8084 2.9335 13.3931C3.06284 13.1807 3.14025 12.9409 3.15944 12.693C3.17863 12.4451 3.13906 12.1961 3.04393 11.9664C2.94881 11.7367 2.80082 11.5326 2.612 11.3709C2.42318 11.2091 2.19885 11.0942 1.95725 11.0354C0.347583 10.6449 0.347583 8.35508 1.95725 7.96458C2.19907 7.90599 2.42363 7.79113 2.61267 7.62935C2.8017 7.46757 2.94987 7.26344 3.0451 7.03357C3.14033 6.8037 3.17995 6.5546 3.16071 6.30653C3.14148 6.05846 3.06394 5.81844 2.93442 5.606C2.07275 4.19158 3.69158 2.57183 5.10692 3.4335C6.02358 3.99083 7.21158 3.49767 7.46458 2.45725Z" stroke="currentColor" stroke-width="1.5" stroke-linecap="round" stroke-linejoin="round"/>
    <path id="Vector_2" d="M9 12.25C10.5188 12.25 11.75 11.0188 11.75 9.5C11.75 7.98122 10.5188 6.75 9 6.75C7.48122 6.75 6.25 7.98122 6.25 9.5C6.25 11.0188 7.48122 12.25 9 12.25Z" stroke="currentColor" stroke-width="1.5" stroke-linecap="round" stroke-linejoin="round"/>
  </g>


</svg>